<svg width="24" height="24" viewBox="0 0 24 24" fill="none" xmlns="http://www.w3.org/2000/svg">
<path d="M11.4042 5.63009L11.9961 6.40425L12.5929 5.63385C13.5332 4.42001 14.9036 3.74215 16.3247 3.75041V3.75042H16.3291C18.9891 3.75042 21.25 6.11446 21.25 9.16508C21.25 10.4476 20.7405 11.7656 19.9014 13.0581C19.0646 14.3471 17.9317 15.5617 16.7647 16.622C14.6756 18.52 12.5448 19.8632 12.0005 20.1938C11.459 19.8613 9.32724 18.5006 7.23665 16.5922C6.06892 15.5263 4.9353 14.3085 4.09807 13.0225C3.25802 11.7322 2.75 10.4251 2.75 9.16508C2.75 6.11445 5.01085 3.75042 7.67085 3.75042V3.75048L7.68048 3.75036C9.10003 3.73214 10.4714 4.41005 11.4042 5.63009Z" stroke="#1A1A1A" stroke-width="1.5"/>
</svg>
