<svg width="68" height="35" viewBox="0 0 68 35" fill="none" xmlns="http://www.w3.org/2000/svg">
<rect width="35" height="35" rx="8" fill="url(#paint0_linear_1_5)"/>
<path d="M11.555 24.133C11.3143 24.133 11.118 24.076 10.966 23.962C10.814 23.848 10.6937 23.677 10.605 23.449L5.38 11.498C5.29133 11.2827 5.266 11.1053 5.304 10.966C5.342 10.814 5.42433 10.6937 5.551 10.605C5.69033 10.5163 5.84867 10.472 6.026 10.472C6.26667 10.472 6.444 10.529 6.558 10.643C6.68467 10.7443 6.786 10.8963 6.862 11.099L11.878 22.746H11.27L16.267 11.08C16.3557 10.89 16.4633 10.7443 16.59 10.643C16.7167 10.529 16.894 10.472 17.122 10.472C17.2993 10.472 17.445 10.5163 17.559 10.605C17.6857 10.6937 17.7617 10.814 17.787 10.966C17.825 11.118 17.7997 11.2953 17.711 11.498L12.486 23.449C12.3973 23.677 12.277 23.848 12.125 23.962C11.9857 24.076 11.7957 24.133 11.555 24.133ZM20.5316 24.133C20.2783 24.133 20.0819 24.0633 19.9426 23.924C19.8159 23.772 19.7526 23.5693 19.7526 23.316V11.27C19.7526 11.004 19.8159 10.8077 19.9426 10.681C20.0819 10.5417 20.2783 10.472 20.5316 10.472C20.7849 10.472 20.9749 10.5417 21.1016 10.681C21.2409 10.8077 21.3106 11.004 21.3106 11.27V16.685H21.3486L27.5426 10.909C27.6946 10.757 27.8466 10.6493 27.9986 10.586C28.1506 10.51 28.3153 10.472 28.4926 10.472C28.7333 10.472 28.9043 10.529 29.0056 10.643C29.1196 10.757 29.1639 10.8963 29.1386 11.061C29.1133 11.2257 29.0246 11.384 28.8726 11.536L22.3936 17.54L22.4126 16.704L29.1766 22.955C29.3666 23.1323 29.4679 23.316 29.4806 23.506C29.4933 23.6833 29.4363 23.8353 29.3096 23.962C29.1956 24.076 29.0183 24.133 28.7776 24.133C28.5876 24.133 28.4229 24.0887 28.2836 24C28.1569 23.924 28.0113 23.8037 27.8466 23.639L21.3486 17.692H21.3106V23.316C21.3106 23.5693 21.2473 23.772 21.1206 23.924C20.9939 24.0633 20.7976 24.133 20.5316 24.133Z" fill="white"/>
<path d="M42.56 24.14C42.2933 24.14 42.0867 24.0667 41.94 23.92C41.8067 23.76 41.74 23.5467 41.74 23.28V10.62C41.74 10.34 41.8067 10.1267 41.94 9.98C42.0867 9.83333 42.2933 9.76 42.56 9.76C42.8267 9.76 43.0267 9.83333 43.16 9.98C43.3067 10.1267 43.38 10.34 43.38 10.62V23.28C43.38 23.5467 43.3133 23.76 43.18 23.92C43.0467 24.0667 42.84 24.14 42.56 24.14ZM47.4567 24.14C47.1901 24.14 46.9901 24.0667 46.8567 23.92C46.7234 23.7733 46.6567 23.5667 46.6567 23.3V14.96C46.6567 14.6933 46.7234 14.4933 46.8567 14.36C46.9901 14.2133 47.1834 14.14 47.4367 14.14C47.6901 14.14 47.8834 14.2133 48.0167 14.36C48.1634 14.4933 48.2367 14.6933 48.2367 14.96V16.68L48.0167 16.44C48.2967 15.6667 48.7501 15.0867 49.3767 14.7C50.0167 14.3 50.7501 14.1 51.5767 14.1C52.3501 14.1 52.9901 14.24 53.4967 14.52C54.0167 14.8 54.4034 15.2267 54.6567 15.8C54.9101 16.36 55.0367 17.0733 55.0367 17.94V23.3C55.0367 23.5667 54.9634 23.7733 54.8167 23.92C54.6834 24.0667 54.4901 24.14 54.2367 24.14C53.9701 24.14 53.7634 24.0667 53.6167 23.92C53.4834 23.7733 53.4167 23.5667 53.4167 23.3V18.04C53.4167 17.1333 53.2367 16.4733 52.8767 16.06C52.5301 15.6333 51.9701 15.42 51.1967 15.42C50.3034 15.42 49.5901 15.7 49.0567 16.26C48.5367 16.8067 48.2767 17.54 48.2767 18.46V23.3C48.2767 23.86 48.0034 24.14 47.4567 24.14ZM62.0639 24.18C61.1172 24.18 60.2972 23.9733 59.6039 23.56C58.9106 23.1467 58.3706 22.5667 57.9839 21.82C57.6106 21.06 57.4239 20.1667 57.4239 19.14C57.4239 18.3667 57.5306 17.6733 57.7439 17.06C57.9572 16.4333 58.2706 15.9 58.6839 15.46C59.0972 15.02 59.5839 14.6867 60.1439 14.46C60.7172 14.22 61.3572 14.1 62.0639 14.1C63.0106 14.1 63.8306 14.3067 64.5239 14.72C65.2172 15.1333 65.7506 15.72 66.1239 16.48C66.5106 17.2267 66.7039 18.1133 66.7039 19.14C66.7039 19.9133 66.5972 20.6067 66.3839 21.22C66.1706 21.8333 65.8572 22.3667 65.4439 22.82C65.0306 23.26 64.5372 23.6 63.9639 23.84C63.4039 24.0667 62.7706 24.18 62.0639 24.18ZM62.0639 22.88C62.6639 22.88 63.1906 22.7333 63.6439 22.44C64.0972 22.1467 64.4439 21.72 64.6839 21.16C64.9372 20.6 65.0639 19.9267 65.0639 19.14C65.0639 17.9267 64.7906 17 64.2439 16.36C63.7106 15.72 62.9839 15.4 62.0639 15.4C61.4506 15.4 60.9172 15.5467 60.4639 15.84C60.0239 16.12 59.6772 16.54 59.4239 17.1C59.1839 17.6467 59.0639 18.3267 59.0639 19.14C59.0639 20.34 59.3372 21.2667 59.8839 21.92C60.4306 22.56 61.1572 22.88 62.0639 22.88Z" fill="black"/>
<defs>
<linearGradient id="paint0_linear_1_5" x1="-9.90927e-08" y1="17.5" x2="35" y2="17.5" gradientUnits="userSpaceOnUse">
<stop stop-color="#636363"/>
<stop offset="1" stop-color="#1C1C1C"/>
</linearGradient>
</defs>
</svg>
