<svg width="25" height="24" viewBox="0 0 25 24" fill="none" xmlns="http://www.w3.org/2000/svg">
<path fill-rule="evenodd" clip-rule="evenodd" d="M17.5532 11C17.5532 7.41015 14.6431 4.5 11.0532 4.5C7.46336 4.5 4.55321 7.41015 4.55321 11C4.55321 14.5899 7.46336 17.5 11.0532 17.5C14.6431 17.5 17.5532 14.5898 17.5532 11ZM19.0532 11C19.0532 6.58172 15.4715 3 11.0532 3C6.63493 3 3.05321 6.58172 3.05321 11C3.05321 15.4183 6.63493 19 11.0532 19C12.9898 19 14.7656 18.3119 16.1496 17.1669L20.5131 21.5303L21.5737 20.4697L17.2112 16.1071C18.3615 14.7216 19.0532 12.9416 19.0532 11Z" fill="#B3B3B3"/>
</svg>
